<svg viewBox="10 10 85 85" xmlns="http://www.w3.org/2000/svg">
  <defs>
    <linearGradient id="fs-ring-grad" x1="16" y1="68" x2="88" y2="24" gradientUnits="userSpaceOnUse">
      <stop offset="0%" stop-color="#0d9488" />
      <stop offset="55%" stop-color="#14b8a6" />
      <stop offset="100%" stop-color="#2dd4bf" />
    </linearGradient>
    <linearGradient id="fs-swoosh-grad" x1="16" y1="68" x2="89" y2="62" gradientUnits="userSpaceOnUse">
      <stop offset="0%" stop-color="#0f766e" />
      <stop offset="100%" stop-color="#0d9488" />
    </linearGradient>
  </defs>

  <path d="M 16 68 A 44 44 0 0 1 82 17" fill="none" stroke="url(#fs-ring-grad)" stroke-width="4.5" stroke-linecap="round" />

  <path d="M 26 74 L 38 74 L 38 54 L 31 57 Q 26 59 26 64 Z" fill="#0f172a" />
  <path d="M 43 74 L 55 74 L 55 40 L 48 43 Q 43 45 43 50 Z" fill="#0f172a" />
  <path d="M 60 74 L 72 74 L 72 26 L 65 29 Q 60 31 60 36 Z" fill="#0f172a" />

  <path d="M 16 68 C 25 96, 75 98, 89 62 C 68 85, 35 82, 16 68 Z" fill="url(#fs-swoosh-grad)" />

  <circle cx="88" cy="24" r="5" fill="#14b8a6" />
</svg>
